<svg width="48" height="49" viewBox="0 0 48 49" fill="none" xmlns="http://www.w3.org/2000/svg">
<rect y="0.802734" width="48" height="48" rx="24" fill="#3B7DEF"/>
<path d="M18.6667 34.1361C20.1394 34.1361 21.3333 32.9422 21.3333 31.4694C21.3333 29.9966 20.1394 28.8027 18.6667 28.8027C17.1939 28.8027 16 29.9966 16 31.4694C16 32.9422 17.1939 34.1361 18.6667 34.1361Z" stroke="white" stroke-width="1.5" stroke-miterlimit="1.5" stroke-linecap="round" stroke-linejoin="round"/>
<path d="M31.9987 34.1361C33.4715 34.1361 34.6654 32.9422 34.6654 31.4694C34.6654 29.9966 33.4715 28.8027 31.9987 28.8027C30.5259 28.8027 29.332 29.9966 29.332 31.4694C29.332 32.9422 30.5259 34.1361 31.9987 34.1361Z" stroke="white" stroke-width="1.5" stroke-miterlimit="1.5" stroke-linecap="round" stroke-linejoin="round"/>
<path d="M21.3987 31.4694H27.9987V17.6027C27.9987 17.1609 27.6406 16.8027 27.1987 16.8027H9.33203" stroke="white" stroke-width="1.5" stroke-linecap="round"/>
<path d="M15.5333 31.4691H12.8C12.3582 31.4691 12 31.1109 12 30.6691V24.1357" stroke="white" stroke-width="1.5" stroke-linecap="round"/>
<path d="M10.668 20.8027H16.0013" stroke="white" stroke-width="1.5" stroke-linecap="round" stroke-linejoin="round"/>
<path d="M28 20.8027H35.4801C35.7963 20.8027 36.0828 20.9889 36.2112 21.2778L38.5977 26.6475C38.6432 26.7499 38.6667 26.8606 38.6667 26.9725V30.6694C38.6667 31.1113 38.3085 31.4694 37.8667 31.4694H35.3333" stroke="white" stroke-width="1.5" stroke-linecap="round"/>
<path d="M28 31.4697H29.3333" stroke="white" stroke-width="1.5" stroke-linecap="round"/>
</svg>
