<svg width="48" height="49" viewBox="0 0 48 49" fill="none" xmlns="http://www.w3.org/2000/svg">
<rect y="0.802734" width="48" height="48" rx="24" fill="#3B7DEF"/>
<path d="M11 33.8027L13.6 29.6027C15.1 27.3027 17.6 25.8027 20.4 25.8027H27C27 28.0027 25.2 29.8027 23 29.8027H21" stroke="white" stroke-width="2" stroke-miterlimit="10" stroke-linecap="round" stroke-linejoin="round"/>
<path d="M23 29.8027H31L32.2 28.2027C33.3 26.7027 35.1 25.8027 37 25.8027L34.3 30.6027C32.9 33.2027 30.1 34.8027 27.2 34.8027C22.5 34.8027 17.9 36.2027 14 38.8027" stroke="white" stroke-width="2" stroke-miterlimit="10" stroke-linecap="round" stroke-linejoin="round"/>
<path d="M28 17.8027C28 20.0027 26.2 21.8027 24 21.8027C21.8 21.8027 20 20.0027 20 17.8027C20 14.8027 24 10.8027 24 10.8027C24 10.8027 28 14.8027 28 17.8027Z" stroke="white" stroke-width="2" stroke-miterlimit="10" stroke-linecap="round" stroke-linejoin="round"/>
</svg>
