<svg width="48" height="49" viewBox="0 0 48 49" fill="none" xmlns="http://www.w3.org/2000/svg">
<rect y="0.802246" width="48" height="48" rx="24" fill="#3B7DEF"/>
<path d="M30 15.8022H18C17.3434 15.8022 16.6932 15.9316 16.0866 16.1828C15.48 16.4341 14.9288 16.8024 14.4645 17.2667C13.5268 18.2044 13 19.4762 13 20.8022V28.8022C13 30.1283 13.5268 31.4001 14.4645 32.3378C14.9288 32.8021 15.48 33.1704 16.0866 33.4216C16.6932 33.6729 17.3434 33.8022 18 33.8022H30C30.6566 33.8022 31.3068 33.6729 31.9134 33.4216C32.52 33.1704 33.0712 32.8021 33.5355 32.3378C33.9998 31.8735 34.3681 31.3223 34.6194 30.7157C34.8707 30.109 35 29.4589 35 28.8022V20.8022C35 20.1456 34.8707 19.4955 34.6194 18.8888C34.3681 18.2822 33.9998 17.731 33.5355 17.2667C33.0712 16.8024 32.52 16.4341 31.9134 16.1828C31.3068 15.9316 30.6566 15.8022 30 15.8022ZM18 17.8022H30C30.7956 17.8022 31.5587 18.1183 32.1213 18.6809C32.6839 19.2435 33 20.0066 33 20.8022H15C15 20.0066 15.3161 19.2435 15.8787 18.6809C16.4413 18.1183 17.2044 17.8022 18 17.8022ZM30 31.8022H18C17.2044 31.8022 16.4413 31.4862 15.8787 30.9236C15.3161 30.361 15 29.5979 15 28.8022V22.8022H33V28.8022C33 29.5979 32.6839 30.361 32.1213 30.9236C31.5587 31.4862 30.7956 31.8022 30 31.8022Z" fill="white"/>
<path d="M30 27.8022H26C25.7348 27.8022 25.4804 27.9076 25.2929 28.0951C25.1054 28.2827 25 28.537 25 28.8022C25 29.0675 25.1054 29.3218 25.2929 29.5094C25.4804 29.6969 25.7348 29.8022 26 29.8022H30C30.2652 29.8022 30.5196 29.6969 30.7071 29.5094C30.8946 29.3218 31 29.0675 31 28.8022C31 28.537 30.8946 28.2827 30.7071 28.0951C30.5196 27.9076 30.2652 27.8022 30 27.8022Z" fill="white"/>
</svg>
