<svg width="48" height="49" viewBox="0 0 48 49" fill="none" xmlns="http://www.w3.org/2000/svg">
<rect y="0.802246" width="48" height="48" rx="24" fill="#3B7DEF"/>
<g clip-path="url(#clip0_4041_330)">
<path d="M35.4 26.9022C35.6 26.6022 35.7 26.2022 35.5 25.8022L31.5 18.9022C31.3 18.5022 30.9 18.4022 30.5 18.4022C30.5 18.5022 30.4 18.6022 30.4 18.8022C30.7 18.3022 30.5 17.7022 30 17.4022L23.1 13.4022C22.7 13.2022 22.3 13.2022 22 13.5022C21.8 13.1022 21.4 12.8022 21 12.8022H13C12.4 12.8022 12 13.2022 12 13.8022V35.8022C12 36.4022 12.4 36.8022 13 36.8022H18.3H21H35C35.6 36.8022 36 36.4022 36 35.8022V27.8022C36 27.4022 35.7 27.0022 35.4 26.9022ZM30.2 20.7022L33.2 25.9022L22.6 32.0022L22 33.1022L28.7 21.6022L30.2 20.7022ZM22.9 15.6022L28.1 18.6022L22 29.1022V17.1022L22.9 15.6022ZM14 34.8022V14.8022H20V34.8022H14ZM32.2 28.8022H34V34.8022H22V34.7022L35.1 27.1022L32.2 28.8022Z" fill="white"/>
<circle cx="17" cy="31.8022" r="1" fill="white"/>
</g>
<defs>
<clipPath id="clip0_4041_330">
<rect width="24" height="24" fill="white" transform="translate(12 12.8022)"/>
</clipPath>
</defs>
</svg>
