<svg width="70" height="70" viewBox="0 0 70 70" fill="none" xmlns="http://www.w3.org/2000/svg">
<path d="M56.6984 62.3004C59.7914 62.3004 62.2984 59.7933 62.2984 56.7004V13.3004C62.2984 10.2075 59.7914 7.70039 56.6984 7.70039H13.2984C10.2055 7.70039 7.69844 10.2075 7.69844 13.3004V56.7004C7.69844 59.7933 10.2055 62.3004 13.2984 62.3004H56.6984ZM56.6984 65.1004H13.2984C8.65916 65.1004 4.89844 61.3397 4.89844 56.7004V13.3004C4.89844 8.66111 8.65916 4.90039 13.2984 4.90039H56.6984C61.3377 4.90039 65.0984 8.66111 65.0984 13.3004V56.7004C65.0984 61.3397 61.3377 65.1004 56.6984 65.1004Z" fill="#84858A"/>
<path d="M20.7043 35.3633L30.2166 45.0792C30.7575 45.6317 31.6439 45.6412 32.1963 45.1002C32.7488 44.5593 32.7582 43.673 32.2173 43.1205L22.705 33.4045C22.1641 32.852 21.2778 32.8426 20.7253 33.3835C20.1728 33.9244 20.1634 34.8108 20.7043 35.3633Z" fill="#3B7DEF"/>
<path d="M32.2168 45.0794L51.4045 25.4794C51.9454 24.927 51.936 24.0405 51.3835 23.4997C50.8309 22.9588 49.9446 22.9682 49.4037 23.5207L30.216 43.1207C29.6751 43.6732 29.6845 44.5596 30.237 45.1005C30.7896 45.6414 31.6759 45.632 32.2168 45.0794Z" fill="#3B7DEF"/>
</svg>
