<svg width="49" height="48" viewBox="0 0 49 48" fill="none" xmlns="http://www.w3.org/2000/svg">
<rect x="0.5" width="48" height="48" rx="24" fill="url(#paint0_linear_4041_1370)" fill-opacity="0.9"/>
<g clip-path="url(#clip0_4041_1370)">
<path d="M28.0625 26.5625C28.25 26 28.25 25.5625 28.1875 25.4375C28.125 25.3125 28 25.3125 27.75 25.1875C27.5 25.0625 26.375 24.5 26.1875 24.4375C26 24.375 25.75 24.375 25.625 24.625C25.375 24.9375 25.1875 25.25 25 25.4375C24.875 25.5625 24.625 25.625 24.4375 25.5C24.1875 25.375 23.4375 25.125 22.5625 24.375C21.875 23.75 21.4375 23 21.25 22.75C21.125 22.5 21.25 22.375 21.375 22.25C21.5 22.125 21.625 22 21.75 21.875C21.875 21.75 21.9375 21.6875 22 21.5C22.0625 21.375 22 21.1875 21.9375 21.0625C21.875 20.9375 21.4375 19.8125 21.25 19.375C21.125 19.0625 21 19.0625 20.75 19.0625C20.6875 19 20.5625 19 20.5 19C20.1875 19 19.875 19.0625 19.6875 19.3125C19.4375 19.5625 18.875 20.125 18.875 21.25C18.875 22.375 19.6875 23.5 19.8125 23.625C19.9375 23.75 21.4375 26.125 23.75 27.125C25.5625 27.875 26.125 27.8125 26.5 27.75C27.125 27.5625 27.875 27.125 28.0625 26.5625Z" stroke="white" stroke-width="1.15731" stroke-miterlimit="10" stroke-linecap="round" stroke-linejoin="round"/>
<path d="M24.5 14.625C19.3125 14.625 15.125 15.8125 15.125 22.75C15.125 27.25 16.875 29.3125 19.5 30.25V33C19.5 33.375 19.9375 33.5625 20.25 33.3125L22.6875 30.875C23.25 30.875 23.875 30.875 24.5 30.875C29.6875 30.875 33.875 29.6875 33.875 22.75C33.875 15.8125 29.6875 14.625 24.5 14.625Z" stroke="white" stroke-width="1.15731" stroke-miterlimit="10" stroke-linecap="round" stroke-linejoin="round"/>
<path d="M24.1875 21C25 21 25.625 21.625 25.625 22.4375" stroke="white" stroke-width="1.15731" stroke-miterlimit="10" stroke-linecap="round" stroke-linejoin="round"/>
<path d="M24.1875 17.125C27.125 17.125 29.5 19.5 29.5 22.4375" stroke="white" stroke-width="1.15731" stroke-miterlimit="10" stroke-linecap="round" stroke-linejoin="round"/>
<path d="M24.1875 19.0625C26.0625 19.0625 27.5625 20.5625 27.5625 22.4375" stroke="white" stroke-width="1.15731" stroke-miterlimit="10" stroke-linecap="round" stroke-linejoin="round"/>
</g>
<defs>
<linearGradient id="paint0_linear_4041_1370" x1="24.5" y1="0" x2="24.5" y2="48" gradientUnits="userSpaceOnUse">
<stop stop-color="#7360F2"/>
<stop offset="1" stop-color="#9182FB"/>
</linearGradient>
<clipPath id="clip0_4041_1370">
<rect width="20" height="20" fill="white" transform="translate(14.5 14)"/>
</clipPath>
</defs>
</svg>
