<svg width="48" height="48" viewBox="0 0 48 48" fill="none" xmlns="http://www.w3.org/2000/svg">
<rect width="48" height="48" rx="24" fill="#161616"/>
<rect width="48" height="48" rx="24" fill="url(#paint0_linear_4041_1365)"/>
<path d="M28.3293 25.8885C28.0951 25.7682 26.9285 25.1967 26.7115 25.1193C26.4945 25.0377 26.3355 24.999 26.1787 25.2396C26.0197 25.4781 25.5685 26.0088 25.4267 26.1699C25.2892 26.3289 25.1496 26.3482 24.9154 26.2301C23.5232 25.534 22.6101 24.9883 21.6927 23.4135C21.45 22.9945 21.9355 23.0246 22.3888 22.1201C22.4662 21.9611 22.4275 21.8258 22.3674 21.7055C22.3072 21.5852 21.8345 20.4207 21.6369 19.9459C21.4457 19.484 21.248 19.5484 21.1041 19.5398C20.9666 19.5312 20.8097 19.5312 20.6508 19.5312C20.4918 19.5312 20.2361 19.5914 20.0191 19.8256C19.8021 20.0641 19.1898 20.6377 19.1898 21.8021C19.1898 22.9666 20.0385 24.0945 20.1545 24.2535C20.2748 24.4125 21.8238 26.8016 24.2021 27.8307C25.706 28.4795 26.2947 28.5354 27.0467 28.4236C27.5043 28.3549 28.4474 27.8521 28.6429 27.2957C28.8385 26.7414 28.8385 26.2666 28.7804 26.1678C28.7224 26.0625 28.5635 26.0023 28.3293 25.8885Z" fill="#F7F7F7"/>
<path d="M32.8775 20.2703C32.3919 19.1166 31.6958 18.0811 30.8085 17.1916C29.9212 16.3043 28.8857 15.6061 27.7298 15.1227C26.5482 14.6264 25.2935 14.375 24.0001 14.375H23.9572C22.6552 14.3814 21.3941 14.6393 20.2081 15.1463C19.063 15.6361 18.0361 16.3322 17.1573 17.2195C16.2786 18.1068 15.589 19.1381 15.112 20.2875C14.6179 21.4777 14.3687 22.7432 14.3751 24.0451C14.3816 25.5361 14.7382 27.0164 15.4064 28.3398V31.6055C15.4064 32.1512 15.8489 32.5938 16.3947 32.5938H19.6624C20.9859 33.2619 22.4661 33.6186 23.9572 33.625H24.0023C25.2892 33.625 26.5374 33.3758 27.7126 32.8881C28.862 32.409 29.8954 31.7215 30.7806 30.8428C31.6679 29.9641 32.3661 28.9371 32.8538 27.792C33.3609 26.6061 33.6187 25.3449 33.6251 24.043C33.6316 22.7346 33.378 21.4648 32.8775 20.2703ZM29.6312 29.6805C28.1251 31.1715 26.1271 31.9922 24.0001 31.9922H23.9636C22.6681 31.9857 21.3812 31.6635 20.2447 31.0576L20.0642 30.9609H17.0392V27.9359L16.9425 27.7555C16.3366 26.6189 16.0144 25.332 16.0079 24.0365C15.9993 21.8945 16.8179 19.8836 18.3197 18.3689C19.8193 16.8543 21.8238 16.0164 23.9657 16.0078H24.0023C25.0765 16.0078 26.1185 16.2162 27.1003 16.6287C28.0585 17.0305 28.9179 17.6084 29.657 18.3475C30.3939 19.0844 30.9739 19.9459 31.3757 20.9041C31.7925 21.8967 32.0009 22.9494 31.9966 24.0365C31.9837 26.1764 31.1437 28.1809 29.6312 29.6805Z" fill="#F7F7F7"/>
<defs>
<linearGradient id="paint0_linear_4041_1365" x1="24" y1="0" x2="24" y2="48" gradientUnits="userSpaceOnUse">
<stop stop-color="#20BC5F"/>
<stop offset="1" stop-color="#41D87D"/>
</linearGradient>
</defs>
</svg>
