<svg width="80" height="27" viewBox="0 0 80 27" fill="none" xmlns="http://www.w3.org/2000/svg">
<path d="M76.3295 10.0998H80C79.5358 6.52726 76.9266 4.64941 73.3001 4.64941C69.6297 4.64941 67.1753 6.596 67.1753 9.93951C67.1753 13.741 70.3372 14.5883 72.0177 14.9319C74.1847 15.367 76.3074 15.4128 76.3074 17.3364C76.3074 18.6418 75.246 19.283 73.7424 19.283C71.8851 19.283 70.6469 18.3212 70.3372 16.5808H66.7109C66.932 20.3365 69.5634 22.3517 73.433 22.3517C77.015 22.3517 79.9558 20.6571 79.9558 16.993C79.9558 13.054 76.5728 12.3441 74.2068 11.9777C72.5926 11.7258 70.8237 11.4967 70.8237 9.73338C70.8237 8.49675 71.7303 7.74106 73.256 7.74106C75.0249 7.74106 76.0862 8.77165 76.3295 10.0998Z" fill="white"/>
<path d="M64.6982 5.22266H61.2266V21.8257H64.6982V5.22266Z" fill="white"/>
<path d="M50.7467 16.0315H55.2796C54.572 17.8179 52.9799 18.665 51.1446 18.665C47.9164 18.665 46.4128 16.0773 46.4128 13.5124C46.4128 10.9246 47.8279 8.29106 51.1226 8.29106C53.1348 8.29106 54.6383 9.25289 55.2132 10.9704L58.9501 10.9704C58.3089 7.10028 55.0363 4.87891 51.1669 4.87891C46.3907 4.87891 42.8086 8.24523 42.8086 13.5583C42.8086 18.9399 46.7002 22.1231 51.1446 22.1231C55.5228 22.1231 58.9501 19.169 58.9501 14.543V13.1918H50.7467V16.0315Z" fill="white"/>
<path d="M34.8716 4.87891C30.8915 4.87891 27.9507 7.46663 27.9728 11.772H31.5549C31.5106 9.89413 32.6604 8.17659 34.6947 8.17659C36.4637 8.17659 37.5029 9.45904 37.5029 10.9246C37.5029 12.3903 36.4637 13.2147 34.5399 14.1079C31.9086 15.3216 30.0292 16.1002 28.1054 16.7873V21.8254H41.5051V18.4361H32.3061C32.3061 18.4361 32.3367 18.4262 32.3518 18.4215C33.9164 17.9304 35.0919 17.397 36.4858 16.7644C39.4708 15.3904 41.1734 13.6727 41.1734 10.7415C41.1735 7.146 38.6085 4.87891 34.8716 4.87891Z" fill="white"/>
<path d="M18.5517 15.9855C14.0409 16.0085 13.3112 18.8252 13.068 21.2069L12.9575 22.2603H12.0508L11.9403 21.2069C11.6971 18.8252 10.9453 16.0085 6.58926 15.9855C5.85959 14.4282 5.55003 13.1687 5.55003 11.7488C5.55003 8.19929 8.35823 4.87859 12.5152 4.87859C16.6722 4.87859 19.4361 8.17627 19.4361 11.7719C19.4361 13.1687 19.3035 14.4282 18.5517 15.9855ZM12.471 0.573242C5.61643 0.573242 0 6.39009 0 13.5121C0 20.6572 5.61643 26.474 12.471 26.474C19.3919 26.474 24.9862 20.6572 24.9862 13.5121C24.9862 6.3901 19.3919 0.573242 12.471 0.573242Z" fill="#29B24A"/>
</svg>
