<svg width="80" height="34" viewBox="0 0 80 34" fill="none" xmlns="http://www.w3.org/2000/svg">
<path fill-rule="evenodd" clip-rule="evenodd" d="M54.7643 17.5505V19.3087H46.8202C46.9411 21.5505 47.8713 22.6575 50.262 22.6575C51.8806 22.6575 53.6202 22.1366 54.6248 21.4668V24.1552C53.6946 24.7877 52.1132 25.2529 50.0015 25.2529C45.7876 25.2529 43.3969 22.9273 43.3969 18.1552C43.3969 13.9691 45.3225 10.918 49.3411 10.918C52.6341 10.918 54.7643 12.7319 54.7643 17.5505ZM49.2667 13.5319C47.6853 13.5319 46.8853 14.6854 46.8108 16.8715H51.3969V16.5924C51.3969 14.8622 50.9039 13.5319 49.2574 13.5319H49.2667ZM24.4108 16.6854V11.1691H27.7318V25.1133H24.4108V19.2808H19.9922V25.1133H16.6992V11.1598H19.9922V16.6854H24.4108ZM68.9039 25.1133H65.1643L60.2806 18.2668V25.1133H56.9876V11.1598H60.2806V17.6063L64.9318 11.1691H68.2713L63.6201 17.6063L68.9039 25.1133ZM78.6527 24.4156C77.8434 25.0017 76.7736 25.2808 75.2388 25.2808C70.8481 25.2808 68.7085 22.7319 68.6992 18.1645C68.6992 13.9505 70.8853 10.9552 75.0992 10.9552C76.7364 10.9552 77.955 11.2342 78.6527 11.6249V14.4156C77.6849 13.858 76.5882 13.563 75.4713 13.5598C73.3039 13.5598 72.1225 15.0854 72.1225 18.0808C72.1225 20.9087 73.0806 22.6761 75.4434 22.6761C76.8295 22.6761 77.8155 22.304 78.6527 21.7273V24.4249V24.4156ZM41.1178 22.4994H42.5876V28.1738H39.5364V25.0854H32.1411V28.1738H29.0899V22.4901H30.1132C31.276 20.1645 31.5085 15.7552 31.5085 12.3505V11.1598H41.1178V22.4994ZM33.1736 22.4994H37.8248V13.7738H34.3364V14.1831C34.3364 16.5924 34.0946 20.397 33.1736 22.4994Z" fill="white"/>
<path d="M13.9265 25.1044V5.84863H9.05207C4.14044 5.84863 1.573 8.36026 1.573 12.0812C1.573 15.03 2.97765 16.7975 5.49858 18.5928L1.11719 25.1044H4.74509L9.62882 17.8021L7.93579 16.6765C5.88928 15.2812 4.87533 14.2114 4.87533 11.8765C4.87533 9.83003 6.31719 8.44398 9.06137 8.44398H10.559V25.0951H13.9265V25.1044Z" fill="#FC3F1D"/>
</svg>
