<svg width="40" height="41" viewBox="0 0 40 41" fill="none" xmlns="http://www.w3.org/2000/svg">
<rect y="0.135742" width="40" height="40" rx="20" fill="#DDDDDD" fill-opacity="0.1"/>
<g clip-path="url(#clip0_4041_993)">
<path d="M18.8995 15.2362L21.0208 13.1149C21.4851 12.6506 22.0363 12.2823 22.6429 12.0311C23.2496 11.7798 23.8997 11.6505 24.5563 11.6505C25.213 11.6505 25.8631 11.7798 26.4698 12.0311C27.0764 12.2823 27.6276 12.6506 28.0919 13.1149C28.5562 13.5792 28.9245 14.1304 29.1757 14.737C29.427 15.3437 29.5563 15.9939 29.5563 16.6505C29.5563 17.3071 29.427 17.9573 29.1757 18.5639C28.9245 19.1705 28.5562 19.7217 28.0919 20.186L25.9706 22.3073M21.7279 26.55L19.6066 28.6713C19.1423 29.1356 18.5911 29.5039 17.9845 29.7551C17.3779 30.0064 16.7277 30.1357 16.0711 30.1357C14.745 30.1357 13.4732 29.609 12.5355 28.6713C11.5979 27.7336 11.0711 26.4618 11.0711 25.1357C11.0711 23.8097 11.5979 22.5379 12.5355 21.6002L14.6569 19.4789" stroke="#F7F7F7" stroke-width="2" stroke-linecap="round" stroke-linejoin="round"/>
<path d="M17.4844 23.7217L23.1412 18.0648" stroke="#F7F7F7" stroke-width="2" stroke-linecap="round" stroke-linejoin="round"/>
</g>
<defs>
<clipPath id="clip0_4041_993">
<rect width="24" height="24" fill="white" transform="translate(8 8.13574)"/>
</clipPath>
</defs>
</svg>
