<svg width="30" height="31" viewBox="0 0 30 31" fill="none" xmlns="http://www.w3.org/2000/svg">
<rect y="0.244141" width="30" height="30" rx="15" fill="#DDDDDD" fill-opacity="0.2"/>
<g clip-path="url(#clip0_4041_447)">
<path d="M14.3122 12.182L15.638 10.8561C15.9282 10.5659 16.2727 10.3358 16.6518 10.1787C17.031 10.0217 17.4373 9.94084 17.8477 9.94084C18.2581 9.94084 18.6645 10.0217 19.0436 10.1787C19.4227 10.3358 19.7672 10.5659 20.0574 10.8561C20.3476 11.1463 20.5778 11.4908 20.7348 11.87C20.8919 12.2491 20.9727 12.6555 20.9727 13.0658C20.9727 13.4762 20.8919 13.8826 20.7348 14.2617C20.5778 14.6409 20.3476 14.9854 20.0574 15.2755L18.7316 16.6014M16.08 19.253L14.7541 20.5788C14.4639 20.869 14.1194 21.0992 13.7403 21.2563C13.3612 21.4133 12.9548 21.4941 12.5444 21.4941C11.7156 21.4941 10.9208 21.1649 10.3347 20.5788C9.74866 19.9928 9.41942 19.1979 9.41942 18.3691C9.41942 17.5403 9.74866 16.7455 10.3347 16.1594L11.6605 14.8336" stroke="#F7F7F7" stroke-width="1.25" stroke-linecap="round" stroke-linejoin="round"/>
<path d="M13.4297 17.4863L16.9652 13.9508" stroke="#F7F7F7" stroke-width="1.25" stroke-linecap="round" stroke-linejoin="round"/>
</g>
<defs>
<clipPath id="clip0_4041_447">
<rect width="15" height="15" fill="white" transform="translate(7.5 7.74414)"/>
</clipPath>
</defs>
</svg>
