<svg width="98" height="18" viewBox="0 0 98 18" fill="none" xmlns="http://www.w3.org/2000/svg">
<g clip-path="url(#clip0_4041_436)">
<path d="M8.05501 3.65326C8.36532 2.75551 9.63496 2.75551 9.94527 3.65326L10.8921 6.39234C11.0313 6.79531 11.4108 7.06565 11.8372 7.06565H14.763C15.7466 7.06565 16.1392 8.33669 15.3269 8.89143L13.0685 10.4338C12.6962 10.6881 12.5401 11.1601 12.6874 11.5863L13.5747 14.1535C13.8895 15.064 12.8612 15.8493 12.0656 15.3059L9.56412 13.5975C9.22401 13.3652 8.77627 13.3652 8.43616 13.5975L5.93466 15.3059C5.1391 15.8493 4.11082 15.064 4.42555 14.1535L5.3129 11.5863C5.46021 11.1601 5.3041 10.6881 4.93175 10.4338L2.67335 8.89143C1.86108 8.33669 2.2537 7.06565 3.23733 7.06565H6.1631C6.58947 7.06565 6.96894 6.79531 7.10823 6.39234L8.05501 3.65326Z" fill="#EFB23B"/>
<path d="M28.055 3.65326C28.3653 2.75551 29.635 2.75551 29.9453 3.65326L30.8921 6.39234C31.0313 6.79531 31.4108 7.06565 31.8372 7.06565H34.763C35.7466 7.06565 36.1392 8.33669 35.3269 8.89143L33.0685 10.4338C32.6962 10.6881 32.5401 11.1601 32.6874 11.5863L33.5747 14.1535C33.8895 15.064 32.8612 15.8493 32.0656 15.3059L29.5641 13.5975C29.224 13.3652 28.7763 13.3652 28.4362 13.5975L25.9347 15.3059C25.1391 15.8493 24.1108 15.064 24.4255 14.1535L25.3129 11.5863C25.4602 11.1601 25.3041 10.6881 24.9318 10.4338L22.6734 8.89143C21.8611 8.33669 22.2537 7.06565 23.2373 7.06565H26.1631C26.5895 7.06565 26.9689 6.79531 27.1082 6.39234L28.055 3.65326Z" fill="#EFB23B"/>
<path d="M48.055 3.65326C48.3653 2.75551 49.635 2.75551 49.9453 3.65326L50.8921 6.39234C51.0313 6.79531 51.4108 7.06565 51.8372 7.06565H54.763C55.7466 7.06565 56.1392 8.33669 55.3269 8.89143L53.0685 10.4338C52.6962 10.6881 52.5401 11.1601 52.6874 11.5863L53.5747 14.1535C53.8895 15.064 52.8612 15.8493 52.0656 15.3059L49.5641 13.5975C49.224 13.3652 48.7763 13.3652 48.4362 13.5975L45.9347 15.3059C45.1391 15.8493 44.1108 15.064 44.4255 14.1535L45.3129 11.5863C45.4602 11.1601 45.3041 10.6881 44.9318 10.4338L42.6734 8.89143C41.8611 8.33669 42.2537 7.06565 43.2373 7.06565H46.1631C46.5895 7.06565 46.9689 6.79531 47.1082 6.39234L48.055 3.65326Z" fill="#EFB23B"/>
<path d="M68.055 3.65326C68.3653 2.75551 69.635 2.75551 69.9453 3.65326L70.8921 6.39234C71.0313 6.79531 71.4108 7.06565 71.8372 7.06565H74.763C75.7466 7.06565 76.1392 8.33669 75.3269 8.89143L73.0685 10.4338C72.6962 10.6881 72.5401 11.1601 72.6874 11.5863L73.5747 14.1535C73.8895 15.064 72.8612 15.8493 72.0656 15.3059L69.5641 13.5975C69.224 13.3652 68.7763 13.3652 68.4362 13.5975L65.9347 15.3059C65.1391 15.8493 64.1108 15.064 64.4255 14.1535L65.3129 11.5863C65.4602 11.1601 65.3041 10.6881 64.9318 10.4338L62.6734 8.89143C61.8611 8.33669 62.2537 7.06565 63.2373 7.06565H66.1631C66.5895 7.06565 66.9689 6.79531 67.1082 6.39234L68.055 3.65326Z" fill="#EFB23B"/>
<path d="M88.055 3.65326C88.3653 2.75551 89.635 2.75551 89.9453 3.65326L90.8921 6.39234C91.0313 6.79531 91.4108 7.06565 91.8372 7.06565H94.763C95.7466 7.06565 96.1392 8.33669 95.3269 8.89143L93.0685 10.4338C92.6962 10.6881 92.5401 11.1601 92.6874 11.5863L93.5747 14.1535C93.8895 15.064 92.8612 15.8493 92.0656 15.3059L89.5641 13.5975C89.224 13.3652 88.7763 13.3652 88.4362 13.5975L85.9347 15.3059C85.1391 15.8493 84.1108 15.064 84.4255 14.1535L85.3129 11.5863C85.4602 11.1601 85.3041 10.6881 84.9318 10.4338L82.6734 8.89143C81.8611 8.33669 82.2537 7.06565 83.2373 7.06565H86.1631C86.5895 7.06565 86.9689 6.79531 87.1082 6.39234L88.055 3.65326Z" fill="#EFB23B"/>
</g>
<defs>
<clipPath id="clip0_4041_436">
<rect y="0.918945" width="98.0014" height="16.0923" rx="3" fill="white"/>
</clipPath>
</defs>
</svg>
