<svg width="100" height="19" viewBox="0 0 100 19" fill="none" xmlns="http://www.w3.org/2000/svg">
<g clip-path="url(#clip0_4041_981)">
<path d="M9.24176 1.81525C9.39313 1.37733 10.0125 1.37733 10.1638 1.81525L11.8761 6.7689C11.944 6.96547 12.1292 7.09734 12.3371 7.09734H17.8108C18.2906 7.09734 18.4821 7.71736 18.0859 7.98797L13.7106 10.9761C13.529 11.1002 13.4528 11.3304 13.5247 11.5383L15.208 16.4081C15.3615 16.8522 14.8599 17.2353 14.4718 16.9702L9.97791 13.9011C9.81201 13.7878 9.5936 13.7878 9.42769 13.9011L4.9338 16.9702C4.54572 17.2353 4.04412 16.8522 4.19765 16.4081L5.88092 11.5383C5.95278 11.3304 5.87663 11.1002 5.695 10.9761L1.3197 7.98797C0.923472 7.71736 1.11499 7.09734 1.59481 7.09734H7.06846C7.27645 7.09734 7.46156 6.96547 7.5295 6.7689L9.24176 1.81525Z" fill="#EFB23B"/>
<path d="M29.6129 1.8153C29.7642 1.37737 30.3836 1.37737 30.535 1.8153L32.2471 6.76888C32.3151 6.96546 32.5002 7.09733 32.7082 7.09733H38.1819C38.6617 7.09733 38.8532 7.71735 38.457 7.98796L34.0816 10.9761C33.9 11.1001 33.8239 11.3304 33.8957 11.5383L35.5791 16.408C35.7326 16.8522 35.231 17.2353 34.8429 16.9702L30.349 13.9011C30.1831 13.7878 29.9647 13.7878 29.7988 13.9011L25.3049 16.9702C24.9168 17.2353 24.4152 16.8522 24.5688 16.408L26.2521 11.5383C26.324 11.3304 26.2478 11.1001 26.0662 10.9761L21.6908 7.98796C21.2946 7.71736 21.4861 7.09733 21.9659 7.09733H27.4397C27.6476 7.09733 27.8328 6.96546 27.9007 6.76889L29.6129 1.8153Z" fill="#EFB23B"/>
<path d="M49.5372 1.88226C49.6847 1.43603 50.316 1.43603 50.4635 1.88226L52.0771 6.76266C52.1431 6.96243 52.3298 7.09734 52.5402 7.09734H57.7437C58.2183 7.09734 58.4134 7.70635 58.0271 7.98214L53.8323 10.9773C53.6583 11.1015 53.5855 11.3245 53.6526 11.5275L55.2583 16.3842C55.4064 16.8321 54.8957 17.2084 54.5117 16.9343L50.2838 13.9156C50.1142 13.7946 49.8865 13.7946 49.7169 13.9156L45.489 16.9343C45.1051 17.2084 44.5943 16.8321 44.7424 16.3841L46.3483 11.5275C46.4154 11.3245 46.3426 11.1015 46.1686 10.9773L41.9736 7.98214C41.5874 7.70636 41.7825 7.09734 42.2571 7.09734H47.4605C47.6709 7.09734 47.8576 6.96243 47.9236 6.76266L49.5372 1.88226Z" fill="#EFB23B"/>
<path d="M69.4644 1.81525C69.6158 1.37732 70.2351 1.37731 70.3865 1.81523L72.0988 6.7689C72.1668 6.96547 72.3519 7.09734 72.5599 7.09734H78.0334C78.5132 7.09734 78.7047 7.71735 78.3085 7.98796L73.9333 10.9761C73.7517 11.1001 73.6756 11.3304 73.7474 11.5383L75.4306 16.4081C75.5842 16.8522 75.0826 17.2353 74.6945 16.9703L70.2005 13.9011C70.0346 13.7878 69.8162 13.7878 69.6503 13.9011L65.1564 16.9702C64.7683 17.2353 64.2667 16.8522 64.4203 16.408L66.1036 11.5383C66.1755 11.3304 66.0993 11.1001 65.9177 10.9761L61.5424 7.98797C61.1461 7.71736 61.3377 7.09734 61.8175 7.09734H67.2912C67.4991 7.09734 67.6843 6.96546 67.7522 6.76889L69.4644 1.81525Z" fill="#EFB23B"/>
<path d="M89.8355 1.81525C89.9869 1.37732 90.6062 1.37731 90.7576 1.81523L92.4699 6.7689C92.5379 6.96547 92.723 7.09734 92.931 7.09734H98.4045C98.8843 7.09734 99.0758 7.71735 98.6796 7.98796L94.3044 10.9761C94.1228 11.1001 94.0467 11.3304 94.1185 11.5383L95.8017 16.4081C95.9553 16.8522 95.4537 17.2353 95.0656 16.9703L90.5716 13.9011C90.4057 13.7878 90.1873 13.7878 90.0214 13.9011L85.5275 16.9702C85.1394 17.2353 84.6378 16.8522 84.7914 16.408L86.4747 11.5383C86.5466 11.3304 86.4704 11.1001 86.2888 10.9761L81.9135 7.98797C81.5172 7.71736 81.7088 7.09734 82.1886 7.09734H87.6623C87.8702 7.09734 88.0554 6.96546 88.1233 6.76889L89.8355 1.81525Z" fill="#EFB23B"/>
</g>
<defs>
<clipPath id="clip0_4041_981">
<rect width="99.9749" height="17.378" fill="white" transform="translate(0.015625 0.478516)"/>
</clipPath>
</defs>
</svg>
