<svg width="280" height="51" viewBox="0 0 280 51" fill="none" xmlns="http://www.w3.org/2000/svg">
<path d="M20.4318 48.038H0V3.0271H20.4318V48.038Z" fill="#3B7DEF"/>
<path d="M51.5853 29.0826H22.5117V28.1707H51.5853V29.0826Z" fill="white"/>
<path d="M51.455 31.9487V32.8824H22.5117V31.9487H51.455Z" fill="white"/>
<path d="M22.5117 36.6605H51.5853V35.7485H22.5117V36.6605Z" fill="white"/>
<path d="M22.5117 40.4603H51.5853V39.5483H22.5117V40.4603Z" fill="white"/>
<path d="M51.7156 43.3479V44.2598H22.5117V43.3479H51.7156Z" fill="white"/>
<path d="M22.5117 48.0596H51.8024V47.1477H22.5117V48.0596Z" fill="white"/>
<path d="M67.5226 48.0597H66.6106V3.93904H23.4237V28.3878H22.5117V3.0271H67.5226V48.0597Z" fill="white"/>
<path d="M63.7199 48.0597H62.808V7.73883H27.2205V28.4529H26.3086V6.80518L63.7199 6.82689V48.0597Z" fill="white"/>
<path d="M59.9251 48.0597H59.0132V11.5386H31.0252V28.3661H30.1133V10.605H59.9251V48.0597Z" fill="white"/>
<path d="M56.1246 48.0598H55.2127V15.3167H34.8026V28.3228H33.8906V14.4048H56.1246V48.0598Z" fill="white"/>
<path d="M52.322 48.0596H51.4101V19.1163H38.5994V28.4094H37.6875V18.2043H52.3437L52.322 48.0596Z" fill="white"/>
<path d="M84.8667 16.135H89.679L87.3295 9.62423H87.2162L84.8667 16.135ZM77.2236 24.4858L84.8667 4.67036H89.679L97.3221 24.4858H92.7929L91.0944 19.9566H83.4513L81.7528 24.4858H77.2236ZM100.711 24.4858V4.67036H109.062C111.157 4.67036 112.855 5.29313 114.158 6.53868C115.479 7.78422 116.139 9.37889 116.139 11.3227C116.139 13.2665 115.479 14.8612 114.158 16.1067C112.855 17.3523 111.157 17.975 109.062 17.975H104.958V24.4858H100.711ZM104.958 14.0119H108.921C109.77 14.0119 110.449 13.7666 110.959 13.2759C111.487 12.7664 111.751 12.1153 111.751 11.3227C111.751 10.5301 111.487 9.88843 110.959 9.39776C110.449 8.88822 109.77 8.63345 108.921 8.63345H104.958V14.0119ZM117.559 24.4858L124.353 14.1535L118.125 4.67036H123.079L127.127 11.1812H127.24L131.288 4.67036H136.242L130.014 14.1535L136.808 24.4858H131.854L127.24 17.1258H127.127L122.513 24.4858H117.559ZM140.055 24.4858V4.67036H144.301V17.4089L153.926 4.67036H157.747V24.4858H153.501V11.7473L143.876 24.4858H140.055ZM167.221 24.4858V8.63345H161.56V4.67036H177.129V8.63345H171.468V24.4858H167.221ZM180.946 24.4858V4.67036H195.666V8.63345H185.193V12.455H193.402V16.2766H185.193V20.5227H195.949V24.4858H180.946ZM200.48 24.4858V4.67036H204.726V13.1627L212.369 4.67036H217.465L210.105 12.8796L218.031 24.4858H213.077L207.274 15.9935L204.726 18.6827V24.4858H200.48Z" fill="white"/>
<path d="M224.689 24.4858V8.63345H219.027V4.67036H234.596V8.63345H228.935V24.4858H224.689ZM238.413 24.4858V4.67036H242.66V17.4089L252.284 4.67036H256.106V24.4858H251.86V11.7473L242.235 24.4858H238.413ZM261.9 24.4858V4.67036H270.251C272.176 4.67036 273.714 5.1799 274.865 6.19898C276.035 7.19919 276.62 8.4353 276.62 9.90731C276.62 11.1906 276.167 12.2663 275.261 13.1344C274.827 13.5307 274.384 13.8232 273.931 14.0119C274.591 14.2007 275.205 14.5215 275.771 14.9744C276.998 16.0124 277.611 17.2957 277.611 18.8243C277.611 20.4095 276.988 21.7494 275.743 22.844C274.516 23.9386 272.874 24.4858 270.817 24.4858H261.9ZM266.146 20.8058H270.534C271.364 20.8058 272.015 20.5888 272.487 20.1547C272.978 19.7207 273.223 19.1357 273.223 18.3997C273.223 17.6637 272.978 17.0786 272.487 16.6446C272.015 16.2105 271.364 15.9935 270.534 15.9935H266.146V20.8058ZM266.146 12.3135H269.968C270.666 12.3135 271.213 12.1342 271.61 11.7756C272.025 11.3982 272.232 10.917 272.232 10.3319C272.232 9.7469 272.025 9.2751 271.61 8.91653C271.213 8.53909 270.666 8.35037 269.968 8.35037H266.146V12.3135Z" fill="#3B7DEF"/>
<path d="M138.339 32.3116H77.4648V29.6882H138.339V32.3116Z" fill="#3B7DEF"/>
<path d="M278.698 32.3116H144.594V29.6882H278.698V32.3116Z" fill="white"/>
<path d="M78.3651 46.0988L79.4267 45.0372C79.6059 45.2731 79.823 45.476 80.0777 45.6458C80.6628 46.0422 81.3186 46.2403 82.0451 46.2403C82.7245 46.2403 83.2576 46.0846 83.6445 45.7732C84.0408 45.4524 84.239 45.0655 84.239 44.6126C84.239 44.1974 84.0408 43.8341 83.6445 43.5228C83.2482 43.2114 82.7151 43.0557 82.0451 43.0557H80.7713V41.5695H82.0451C82.6113 41.5695 83.0595 41.4374 83.3897 41.1732C83.72 40.909 83.8851 40.5882 83.8851 40.2107C83.8851 39.8427 83.72 39.5314 83.3897 39.2766C83.0689 39.0124 82.6207 38.8803 82.0451 38.8803C81.4224 38.8803 80.8468 39.0596 80.3183 39.4181C80.1108 39.5502 79.9079 39.7248 79.7097 39.9418L78.6482 38.8803C78.8652 38.6349 79.1577 38.399 79.5257 38.1726C80.2995 37.7008 81.1393 37.4649 82.0451 37.4649C83.102 37.4649 83.9323 37.7149 84.5362 38.215C85.1401 38.7151 85.4421 39.3379 85.4421 40.0834C85.4421 40.7627 85.1826 41.3336 84.6636 41.796C84.4277 41.9847 84.1682 42.1451 83.8851 42.2772C84.2343 42.3999 84.5504 42.5697 84.8334 42.7868C85.4751 43.2774 85.7959 43.9096 85.7959 44.6834C85.7959 45.4949 85.4515 46.1931 84.7627 46.7782C84.0739 47.3632 83.168 47.6557 82.0451 47.6557C80.9883 47.6557 80.0636 47.3962 79.271 46.8772C78.8935 46.6319 78.5916 46.3724 78.3651 46.0988ZM86.3648 47.5142L90.3279 37.6064H92.0264L95.9895 47.5142H94.3618L93.371 44.9665H88.9833L87.9925 47.5142H86.3648ZM89.5495 43.5511H92.8049L91.1772 39.4464L89.5495 43.5511ZM99.1061 46.0988H101.654C102.107 46.0988 102.489 45.9431 102.8 45.6317C103.121 45.3109 103.282 44.924 103.282 44.4711C103.282 44.0181 103.121 43.636 102.8 43.3246C102.489 43.0038 102.107 42.8434 101.654 42.8434H99.1061V46.0988ZM97.5492 47.5142V37.6064H104.06V39.0926H99.1061V41.428H101.654C102.569 41.428 103.329 41.7205 103.933 42.3055C104.537 42.8905 104.838 43.6124 104.838 44.4711C104.838 45.3297 104.537 46.0516 103.933 46.6366C103.329 47.2216 102.569 47.5142 101.654 47.5142H97.5492ZM108.944 39.956C108.236 40.6637 107.882 41.5318 107.882 42.5603C107.882 43.5888 108.236 44.4616 108.944 45.1788C109.661 45.8865 110.534 46.2403 111.562 46.2403C112.591 46.2403 113.459 45.8865 114.166 45.1788C114.884 44.4616 115.242 43.5888 115.242 42.5603C115.242 41.5318 114.884 40.6637 114.166 39.956C113.459 39.2388 112.591 38.8803 111.562 38.8803C110.534 38.8803 109.661 39.2388 108.944 39.956ZM107.825 46.1837C106.825 45.1929 106.325 43.9851 106.325 42.5603C106.325 41.1355 106.825 39.9324 107.825 38.951C108.835 37.9603 110.081 37.4649 111.562 37.4649C113.044 37.4649 114.284 37.9603 115.285 38.951C116.294 39.9324 116.799 41.1355 116.799 42.5603C116.799 43.9851 116.294 45.1929 115.285 46.1837C114.284 47.165 113.044 47.6557 111.562 47.6557C110.081 47.6557 108.835 47.165 107.825 46.1837ZM120.551 47.5142V39.0926H117.579V37.6064H125.08V39.0926H122.108V47.5142H120.551ZM124.666 47.5142L128.629 37.6064H130.328L134.291 47.5142H132.663L131.672 44.9665H127.285L126.294 47.5142H124.666ZM127.851 43.5511H131.106L129.478 39.4464L127.851 43.5511ZM138.394 47.5142V37.6064H142.357C143.225 37.6064 143.937 37.8612 144.494 38.3707C145.051 38.8803 145.329 39.4983 145.329 40.2249C145.329 40.8099 145.126 41.3242 144.721 41.7677C144.56 41.947 144.362 42.0932 144.126 42.2064C144.447 42.3291 144.73 42.5084 144.975 42.7443C145.541 43.235 145.825 43.8577 145.825 44.6126C145.825 45.4052 145.513 46.0893 144.89 46.6649C144.277 47.2311 143.503 47.5142 142.569 47.5142H138.394ZM139.951 46.1695H142.569C143.069 46.1695 143.475 46.0138 143.786 45.7025C144.107 45.3911 144.268 45.0042 144.268 44.5418C144.268 44.0795 144.107 43.6926 143.786 43.3812C143.475 43.0698 143.069 42.9141 142.569 42.9141H139.951V46.1695ZM139.951 41.6403H142.357C142.781 41.6403 143.121 41.5176 143.376 41.2723C143.64 41.0175 143.772 40.692 143.772 40.2957C143.772 39.8994 143.64 39.5785 143.376 39.3332C143.121 39.0784 142.781 38.951 142.357 38.951H139.951V41.6403ZM150.986 47.5142V37.6064H152.543V42.4188L157.001 37.6064H158.983L155.161 41.7111L159.266 47.5142H157.355L154.1 42.8434L152.543 44.5418V47.5142H150.986ZM159.401 47.5142L163.364 37.6064H165.063L169.026 47.5142H167.398L166.407 44.9665H162.02L161.029 47.5142H159.401ZM162.586 43.5511H165.841L164.214 39.4464L162.586 43.5511ZM169.17 47.5142L173.275 41.7111L169.453 37.6064H171.435L175.327 41.7818V37.6064H176.884V41.7818L180.776 37.6064H182.758L178.936 41.7111L183.041 47.5142H181.13L177.875 42.8434L176.884 43.9049V47.5142H175.327V43.9049L174.336 42.8434L171.081 47.5142H169.17ZM183.048 49.6372V46.028H183.614C183.935 45.7166 184.218 45.3061 184.463 44.7966C185.029 43.6832 185.312 42.2772 185.312 40.5787V37.6064H191.752V46.028H192.955V49.6372H191.399V47.5142H184.605V49.6372H183.048ZM185.312 46.028H190.195V39.0926H186.869V40.5787C186.869 42.2206 186.61 43.6266 186.091 44.7966C185.845 45.3156 185.586 45.726 185.312 46.028ZM196.701 39.956C195.993 40.6637 195.639 41.5318 195.639 42.5603C195.639 43.5888 195.993 44.4616 196.701 45.1788C197.418 45.8865 198.291 46.2403 199.319 46.2403C200.348 46.2403 201.216 45.8865 201.923 45.1788C202.641 44.4616 202.999 43.5888 202.999 42.5603C202.999 41.5318 202.641 40.6637 201.923 39.956C201.216 39.2388 200.348 38.8803 199.319 38.8803C198.291 38.8803 197.418 39.2388 196.701 39.956ZM195.583 46.1837C194.582 45.1929 194.082 43.9851 194.082 42.5603C194.082 41.1355 194.582 39.9324 195.583 38.951C196.592 37.9603 197.838 37.4649 199.319 37.4649C200.801 37.4649 202.041 37.9603 203.042 38.951C204.051 39.9324 204.556 41.1355 204.556 42.5603C204.556 43.9851 204.051 45.1929 203.042 46.1837C202.041 47.165 200.801 47.6557 199.319 47.6557C197.838 47.6557 196.592 47.165 195.583 46.1837ZM206.744 47.5142V37.6064H208.301V44.8957L213.751 37.6064H215.166V47.5142H213.609V40.2249L208.16 47.5142H206.744ZM208.868 34.351H209.929C209.929 34.6341 210.023 34.87 210.212 35.0587C210.401 35.2474 210.637 35.3418 210.92 35.3418C211.203 35.3418 211.439 35.2474 211.628 35.0587C211.816 34.87 211.911 34.6341 211.911 34.351H212.972C212.972 34.9172 212.779 35.389 212.392 35.7664C212.005 36.1438 211.514 36.3326 210.92 36.3326C210.325 36.3326 209.835 36.1438 209.448 35.7664C209.061 35.389 208.868 34.9172 208.868 34.351ZM219.552 49.6372V46.028H220.118C220.439 45.7166 220.722 45.3061 220.967 44.7966C221.534 43.6832 221.817 42.2772 221.817 40.5787V37.6064H228.257V46.028H229.46V49.6372H227.903V47.5142H221.109V49.6372H219.552ZM221.817 46.028H226.7V39.0926H223.374V40.5787C223.374 42.2206 223.114 43.6266 222.595 44.7966C222.35 45.3156 222.09 45.726 221.817 46.028ZM231.224 47.5142V37.6064H238.23V39.0926H232.78V41.6403H237.097V43.1264H232.78V46.028H238.371V47.5142H231.224ZM242.269 47.5142V39.0926H239.297V37.6064H246.798V39.0926H243.826V47.5142H242.269ZM246.384 47.5142L250.347 37.6064H252.046L256.009 47.5142H254.381L253.39 44.9665H249.003L248.012 47.5142H246.384ZM249.569 43.5511H252.824L251.197 39.4464L249.569 43.5511ZM256.082 47.4434V46.028C256.177 46.0657 256.252 46.0893 256.309 46.0988C256.479 46.1459 256.663 46.1695 256.861 46.1695C257.116 46.1695 257.337 46.0988 257.526 45.9572C257.724 45.8063 257.908 45.542 258.078 45.1646C258.257 44.7872 258.394 44.2163 258.489 43.452C258.583 42.6782 258.63 41.7205 258.63 40.5787V37.6064H265.353V47.5142H263.796V39.0926H260.187V40.5787C260.187 41.7111 260.135 42.6971 260.031 43.5369C259.937 44.3767 259.8 45.0561 259.621 45.5751C259.451 46.0941 259.234 46.514 258.97 46.8348C258.706 47.1462 258.427 47.3632 258.135 47.4859C257.852 47.5991 257.521 47.6557 257.144 47.6557C256.851 47.6557 256.597 47.6227 256.38 47.5566L256.082 47.4434ZM268.184 47.5142V37.6064H269.741V44.8957L275.19 37.6064H276.606V47.5142H275.049V40.2249L269.599 47.5142H268.184Z" fill="white"/>
</svg>
