<svg width="33" height="27" viewBox="0 0 33 27" fill="none" xmlns="http://www.w3.org/2000/svg">
<path d="M21.7812 26.0576H1.46875C0.8025 26.0576 0.25 25.5051 0.25 24.8389V11.0264C0.25 4.98137 5.17375 0.0576172 11.2188 0.0576172H21.7812C27.8263 0.0576172 32.75 4.98137 32.75 11.0264V15.0889C32.75 21.1339 27.8263 26.0576 21.7812 26.0576ZM2.6875 23.6201H21.7812C26.4775 23.6201 30.3125 19.7851 30.3125 15.0889V11.0264C30.3125 6.31387 26.4775 2.49512 21.7812 2.49512H11.2188C6.5225 2.49512 2.6875 6.31387 2.6875 11.0264V23.6201Z" fill="white" fill-opacity="0.1"/>
<path d="M10 14.6828C9.5775 14.6828 9.155 14.5041 8.84625 14.2116C8.55375 13.9028 8.375 13.4803 8.375 13.0578C8.375 12.6191 8.55375 12.2128 8.84625 11.9041C9.4475 11.3028 10.5525 11.3028 11.1538 11.9041C11.2188 11.9853 11.2838 12.0666 11.3488 12.1478C11.4138 12.2453 11.4625 12.3428 11.495 12.4403C11.5438 12.5378 11.5762 12.6353 11.5925 12.7328C11.6087 12.8466 11.625 12.9603 11.625 13.0578C11.625 13.1553 11.6087 13.2691 11.5925 13.3828C11.5762 13.4803 11.5438 13.5778 11.495 13.6753C11.4625 13.7728 11.4138 13.8703 11.3488 13.9516C11.2838 14.0491 11.2188 14.1303 11.1538 14.2116C10.845 14.5041 10.4225 14.6828 10 14.6828Z" fill="white" fill-opacity="0.1"/>
<path d="M16.5 14.6826C16.2888 14.6826 16.0775 14.6339 15.8825 14.5526C15.6712 14.4714 15.5087 14.3576 15.3462 14.2114C15.0537 13.9026 14.875 13.4801 14.875 13.0576C14.875 12.8464 14.9237 12.6351 15.005 12.4401C15.0862 12.2289 15.2 12.0664 15.3462 11.9039C15.5087 11.7576 15.6712 11.6439 15.8825 11.5626C16.175 11.4326 16.5 11.4001 16.8087 11.4651C16.9225 11.4814 17.02 11.5139 17.1175 11.5626C17.215 11.5951 17.3125 11.6439 17.3938 11.7089C17.4913 11.7576 17.5725 11.8389 17.6538 11.9039C17.8 12.0664 17.9138 12.2289 17.995 12.4401C18.0763 12.6351 18.125 12.8464 18.125 13.0576C18.125 13.4801 17.9463 13.9026 17.6538 14.2114C17.5725 14.2764 17.4913 14.3576 17.3938 14.4064C17.3125 14.4714 17.215 14.5201 17.1175 14.5526C17.02 14.6014 16.9225 14.6339 16.8087 14.6501C16.7112 14.6664 16.5975 14.6826 16.5 14.6826Z" fill="white" fill-opacity="0.1"/>
<path d="M23 14.6818C22.9025 14.6818 22.7888 14.6655 22.6913 14.6493C22.5775 14.633 22.48 14.6005 22.3825 14.5518C22.285 14.5193 22.1875 14.4705 22.09 14.4055C22.0087 14.3405 21.9275 14.2755 21.8462 14.2105C21.5537 13.9018 21.375 13.4955 21.375 13.0568C21.375 12.8455 21.4237 12.6343 21.505 12.4393C21.5862 12.2443 21.7 12.0655 21.8462 11.903C21.9275 11.838 22.0087 11.773 22.09 11.708C22.1875 11.643 22.285 11.5943 22.3825 11.5618C22.48 11.513 22.5775 11.4805 22.6913 11.4643C23.2113 11.3668 23.7637 11.5293 24.1537 11.903C24.4462 12.2118 24.625 12.6343 24.625 13.0568C24.625 13.1543 24.6087 13.268 24.5925 13.3818C24.5762 13.4793 24.5438 13.5768 24.495 13.6743C24.4625 13.7718 24.4138 13.8693 24.3488 13.9668C24.2838 14.048 24.2187 14.1293 24.1537 14.2105C23.845 14.503 23.4225 14.6818 23 14.6818Z" fill="white" fill-opacity="0.1"/>
</svg>
