<svg width="49" height="49" viewBox="0 0 49 49" fill="none" xmlns="http://www.w3.org/2000/svg">
<rect x="0.332031" y="0.523438" width="48" height="48" rx="24" fill="white" fill-opacity="0.1"/>
<g clip-path="url(#clip0_4041_670)">
<path d="M32.332 35.1134L29.742 32.5234L28.332 33.9334L32.332 37.9334L39.332 30.9334L37.922 29.5234L32.332 35.1134Z" fill="#3B7DEF"/>
<path d="M25.332 31.5234H23.332V33.5234H25.332V31.5234Z" fill="#F7F7F7"/>
<path d="M19.332 31.5234H17.332V33.5234H19.332V31.5234Z" fill="#F7F7F7"/>
<path d="M31.332 26.5234H29.332V28.5234H31.332V26.5234Z" fill="#F7F7F7"/>
<path d="M25.332 26.5234H23.332V28.5234H25.332V26.5234Z" fill="#F7F7F7"/>
<path d="M19.332 26.5234H17.332V28.5234H19.332V26.5234Z" fill="#F7F7F7"/>
<path d="M31.332 21.5234H29.332V23.5234H31.332V21.5234Z" fill="#F7F7F7"/>
<path d="M25.332 21.5234H23.332V23.5234H25.332V21.5234Z" fill="#F7F7F7"/>
<path d="M19.332 21.5234H17.332V23.5234H19.332V21.5234Z" fill="#F7F7F7"/>
<path d="M31.332 15.5234H17.332V18.5234H31.332V15.5234Z" fill="#F7F7F7"/>
<path d="M25.332 38.5234H14.3366C13.8051 38.5228 13.2956 38.3114 12.9198 37.9355C12.544 37.5596 12.3326 37.05 12.332 36.5185V12.5195C12.3326 11.9903 12.5431 11.483 12.9173 11.1088C13.2916 10.7345 13.7989 10.524 14.3281 10.5234H34.3357C34.865 10.524 35.3724 10.7345 35.7466 11.1087C36.1209 11.4829 36.3314 11.9903 36.332 12.5195V26.5234H34.332V12.5234H14.332V36.5234H25.332V38.5234Z" fill="#F7F7F7"/>
</g>
<defs>
<clipPath id="clip0_4041_670">
<rect width="32" height="32" fill="white" transform="translate(8.33203 8.52344)"/>
</clipPath>
</defs>
</svg>
